<svg xmlns="http://www.w3.org/2000/svg" width="29" height="40" viewBox="0 0 29 40"><g><g><path fill="#0a3c79" d="M29 16.61v22.033c0 .75-.59 1.356-1.319 1.356H1.317c-.727 0-1.318-.607-1.318-1.356V16.61c0-.749.59-1.356 1.318-1.356h2.802v-4.576C4.118 4.79 8.775 0 14.498 0 20.224 0 24.88 4.79 24.88 10.678v4.576h2.801c.728 0 1.319.607 1.319 1.356zM6.754 15.254h15.49v-4.576c0-4.393-3.475-7.967-7.745-7.967s-7.745 3.574-7.745 7.967zm19.61 2.712H2.633v19.322h23.73zm-14.501 7.542c0-1.498 1.18-2.712 2.636-2.712 1.456 0 2.636 1.214 2.636 2.712 0 1.001-.533 1.866-1.318 2.336v4.613h-2.636v-4.613a2.714 2.714 0 0 1-1.318-2.336z"/></g></g></svg>