<svg xmlns="http://www.w3.org/2000/svg" width="32" height="34" viewBox="0 0 32 34"><g><g><path fill="#315b8e" d="M16 33.997c-.189 0-.375-.046-.54-.135C6.125 29.102.186 19.632.004 9.221c-.006-1.551.136-3.1.423-4.626a1.142 1.142 0 0 1 1.408-.885c1.161.296 2.356.443 3.555.437a14.268 14.268 0 0 0 9.815-3.84 1.152 1.152 0 0 1 1.588 0 14.27 14.27 0 0 0 9.815 3.84 14.12 14.12 0 0 0 3.555-.437 1.143 1.143 0 0 1 1.408.884c.286 1.527.428 3.076.423 4.627-.183 10.411-6.121 19.88-15.455 24.641a1.153 1.153 0 0 1-.54.135zM2.487 6.167a23.249 23.249 0 0 0-.197 3.054C2.46 18.579 7.7 27.12 16 31.57c8.299-4.45 13.538-12.991 13.71-22.349a23.211 23.211 0 0 0-.197-3.054c-.96.166-1.93.248-2.904.246a16.693 16.693 0 0 1-10.61-3.765A16.694 16.694 0 0 1 5.392 6.413a16.89 16.89 0 0 1-2.904-.246zm11.799 15.928l-.038-.001a1.143 1.143 0 0 1-.876-.452l-3.428-4.535c-.378-.501-.276-1.211.229-1.587a1.148 1.148 0 0 1 1.6.226l2.573 3.404 5.928-6.861a1.15 1.15 0 0 1 1.56-.12c.492.392.57 1.106.175 1.594l-6.855 7.935a1.144 1.144 0 0 1-.868.397z"/></g></g></svg>