<svg xmlns="http://www.w3.org/2000/svg" width="65.91" height="66.34" viewBox="0 0 65.91 66.34">
  <metadata><?xpacket begin="﻿" id="W5M0MpCehiHzreSzNTczkc9d"?>
<x:xmpmeta xmlns:x="adobe:ns:meta/" x:xmptk="Adobe XMP Core 5.6-c142 79.160924, 2017/07/13-01:06:39        ">
   <rdf:RDF xmlns:rdf="http://www.w3.org/1999/02/22-rdf-syntax-ns#">
      <rdf:Description rdf:about=""/>
   </rdf:RDF>
</x:xmpmeta>
                                                                                                    
                                                                                                    
                                                                                                    
                                                                                                    
                                                                                                    
                                                                                                    
                                                                                                    
                                                                                                    
                                                                                                    
                                                                                                    
                                                                                                    
                                                                                                    
                                                                                                    
                                                                                                    
                                                                                                    
                                                                                                    
                                                                                                    
                                                                                                    
                                                                                                    
                                                                                                    
                           
<?xpacket end="w"?></metadata>
<defs>
    <style>
      .cls-1 {
        fill: #fff;
        fill-rule: evenodd;
      }
    </style>
  </defs>
  <path id="_4" data-name="4" class="cls-1" d="M1382.1,3205.83a32.951,32.951,0,1,1,32.95,33.17A33.059,33.059,0,0,1,1382.1,3205.83Zm4.12,0a28.831,28.831,0,1,0,28.83-29.03A28.925,28.925,0,0,0,1386.22,3205.83Zm30.14,12.61a2.089,2.089,0,0,1,0-2.93l7.58-7.63h-23.33a2.075,2.075,0,0,1,0-4.15h23.2l-7.45-7.5a2.089,2.089,0,0,1,0-2.93,2.046,2.046,0,0,1,2.91,0l12.17,12.57-12.17,12.57a2.046,2.046,0,0,1-2.91,0h0Z" transform="translate(-1382.09 -3172.66)"/>
</svg>
