<svg xmlns="http://www.w3.org/2000/svg" width="29" height="40" viewBox="0 0 29 40">
  <metadata><?xpacket begin="﻿" id="W5M0MpCehiHzreSzNTczkc9d"?>
<x:xmpmeta xmlns:x="adobe:ns:meta/" x:xmptk="Adobe XMP Core 5.6-c142 79.160924, 2017/07/13-01:06:39        ">
   <rdf:RDF xmlns:rdf="http://www.w3.org/1999/02/22-rdf-syntax-ns#">
      <rdf:Description rdf:about=""/>
   </rdf:RDF>
</x:xmpmeta>
                                                                                                    
                                                                                                    
                                                                                                    
                                                                                                    
                                                                                                    
                                                                                                    
                                                                                                    
                                                                                                    
                                                                                                    
                                                                                                    
                                                                                                    
                                                                                                    
                                                                                                    
                                                                                                    
                                                                                                    
                                                                                                    
                                                                                                    
                                                                                                    
                                                                                                    
                                                                                                    
                           
<?xpacket end="w"?></metadata>
<defs>
    <style>
      .cls-1 {
        fill: #0a3c79;
        fill-rule: evenodd;
      }
    </style>
  </defs>
  <path id="fixed" class="cls-1" d="M375.681,4029.25h-2.8v-4.57a10.385,10.385,0,1,0-20.762,0v4.57h-2.8a1.341,1.341,0,0,0-1.318,1.36v22.03a1.341,1.341,0,0,0,1.318,1.36h26.365a1.341,1.341,0,0,0,1.319-1.36v-22.03A1.341,1.341,0,0,0,375.681,4029.25Zm-20.927-4.57a7.748,7.748,0,1,1,15.49,0v4.57h-15.49v-4.57Zm19.609,26.61H350.635v-19.32h23.728v19.32Zm-13.182-9.45v4.62h2.636v-4.62a2.706,2.706,0,0,0,1.318-2.33,2.637,2.637,0,1,0-5.272,0A2.706,2.706,0,0,0,361.181,4041.84Z" transform="translate(-348 -4014)"/>
</svg>
