<svg xmlns="http://www.w3.org/2000/svg" width="67.562" height="68" viewBox="0 0 67.562 68">
  <metadata><?xpacket begin="﻿" id="W5M0MpCehiHzreSzNTczkc9d"?>
<x:xmpmeta xmlns:x="adobe:ns:meta/" x:xmptk="Adobe XMP Core 5.6-c142 79.160924, 2017/07/13-01:06:39        ">
   <rdf:RDF xmlns:rdf="http://www.w3.org/1999/02/22-rdf-syntax-ns#">
      <rdf:Description rdf:about=""/>
   </rdf:RDF>
</x:xmpmeta>
                                                                                                    
                                                                                                    
                                                                                                    
                                                                                                    
                                                                                                    
                                                                                                    
                                                                                                    
                                                                                                    
                                                                                                    
                                                                                                    
                                                                                                    
                                                                                                    
                                                                                                    
                                                                                                    
                                                                                                    
                                                                                                    
                                                                                                    
                                                                                                    
                                                                                                    
                                                                                                    
                           
<?xpacket end="w"?></metadata>
<defs>
    <style>
      .cls-1 {
        fill: #fff;
        fill-rule: evenodd;
      }
    </style>
  </defs>
  <path id="_2" data-name="2" class="cls-1" d="M814.375,3171a34,34,0,1,0,33.774,34h0A33.89,33.89,0,0,0,814.375,3171Zm0,64.45A30.456,30.456,0,1,1,844.631,3205,30.352,30.352,0,0,1,814.375,3235.45Zm1.687-31.87v-9.71a10.365,10.365,0,0,1,4.992,2.29,1.386,1.386,0,0,0,1.972-.07,1.417,1.417,0,0,0-.073-1.99,12.65,12.65,0,0,0-6.9-3.11v-2.57a1.406,1.406,0,1,0-2.811,0v2.55c-4.787.5-8.16,3.69-8.16,7.86,0,4.67,5.318,6.17,8.16,6.89v10.75a16.8,16.8,0,0,1-6.405-2.91,1.4,1.4,0,0,0-1.968,1.98c1.687,1.7,5.63,3.33,8.358,3.76v2.34a1.406,1.406,0,1,0,2.811,0h0v-2.29c3.586-.43,8.16-2.55,8.16-7.37C824.321,3208.25,821.343,3205.21,816.062,3203.58Zm-2.811-.76c-2.28-.64-5.319-1.7-5.319-3.97,0-2.98,2.606-4.59,5.319-5.03v9Zm2.811,13.76v-10.02c2.53,0.91,5.319,2.62,5.319,5.52,0.1,3.12-3.344,4.11-5.319,4.46v0.04Z" transform="translate(-780.594 -3171)"/>
</svg>
