<svg xmlns="http://www.w3.org/2000/svg" width="46.12" height="63.85" viewBox="0 0 46.12 63.85">
  <metadata><?xpacket begin="﻿" id="W5M0MpCehiHzreSzNTczkc9d"?>
<x:xmpmeta xmlns:x="adobe:ns:meta/" x:xmptk="Adobe XMP Core 5.6-c142 79.160924, 2017/07/13-01:06:39        ">
   <rdf:RDF xmlns:rdf="http://www.w3.org/1999/02/22-rdf-syntax-ns#">
      <rdf:Description rdf:about=""/>
   </rdf:RDF>
</x:xmpmeta>
                                                                                                    
                                                                                                    
                                                                                                    
                                                                                                    
                                                                                                    
                                                                                                    
                                                                                                    
                                                                                                    
                                                                                                    
                                                                                                    
                                                                                                    
                                                                                                    
                                                                                                    
                                                                                                    
                                                                                                    
                                                                                                    
                                                                                                    
                                                                                                    
                                                                                                    
                                                                                                    
                           
<?xpacket end="w"?></metadata>
<defs>
    <style>
      .cls-1 {
        fill: #fff;
        fill-rule: evenodd;
      }
    </style>
  </defs>
  <path id="_3" data-name="3" class="cls-1" d="M1114.28,3236.7h0a4.978,4.978,0,0,1-4.31-2.51l-12.55-19.38c-0.81-1.25-1.58-2.55-2.3-3.84-0.6-1.09-1-1.94-1.32-2.54a27.721,27.721,0,0,1-2.59-12.03,24.5,24.5,0,0,1,.16-2.85,23.233,23.233,0,0,1,22.91-20.71h0a23.314,23.314,0,0,1,23.07,23.56v0.01a27.473,27.473,0,0,1-2.59,11.98c-0.33.68-.68,1.37-1.05,2.09-0.74,1.4-1.58,2.8-2.56,4.32l-12.61,19.45A5,5,0,0,1,1114.28,3236.7Zm0-60.84a20.257,20.257,0,0,0-19.97,18.09,22,22,0,0,0-.14,2.43,24.67,24.67,0,0,0,2.27,10.71c0.26,0.54.67,1.35,1.24,2.38,0.68,1.23,1.42,2.47,2.18,3.66l12.58,19.46a2.072,2.072,0,0,0,1.84,1.09h0a1.988,1.988,0,0,0,1.78-1.02l12.64-19.52c0.94-1.44,1.73-2.78,2.43-4.08,0.34-.68.67-1.34,0.99-1.97a24.36,24.36,0,0,0,2.29-10.66,22.23,22.23,0,0,0-.16-2.45h0A20.261,20.261,0,0,0,1114.28,3175.86Zm0,34.76h0a13.559,13.559,0,0,1-7.42-2.25,14.315,14.315,0,0,1-6.49-11.97v-0.18a14.244,14.244,0,0,1,13.91-14.04h0a14.288,14.288,0,0,1,13.92,14.08v0.14a14.526,14.526,0,0,1-6.49,11.97A13.567,13.567,0,0,1,1114.28,3210.62Zm0-25.42a11.231,11.231,0,0,0-10.98,11.08v0.12a11.419,11.419,0,0,0,5.15,9.39,10.665,10.665,0,0,0,5.83,1.81h0a10.534,10.534,0,0,0,5.83-1.76h0a11.419,11.419,0,0,0,5.15-9.44v-0.12A11.244,11.244,0,0,0,1114.28,3185.2Z" transform="translate(-1091.22 -3172.84)"/>
</svg>
