<svg 
 xmlns="http://www.w3.org/2000/svg"
 xmlns:xlink="http://www.w3.org/1999/xlink"
 width="21px" height="21px">
<path fill-rule="evenodd"  fill="rgb(255, 255, 255)"
 d="M10.500,-0.000 C4.701,-0.000 -0.000,4.701 -0.000,10.500 C-0.000,16.299 4.701,21.000 10.500,21.000 C16.299,21.000 21.000,16.299 21.000,10.500 C21.000,4.701 16.299,-0.000 10.500,-0.000 ZM15.507,6.828 C15.477,7.253 15.204,8.740 14.991,10.348 L14.263,15.113 C14.263,15.113 14.202,15.810 13.656,15.932 C13.110,16.053 12.290,15.507 12.139,15.386 C12.017,15.294 9.863,13.929 9.104,13.262 C8.892,13.079 8.649,12.715 9.134,12.290 L12.321,9.256 C12.685,8.891 13.049,8.042 11.532,9.073 L7.283,11.956 C7.283,11.956 6.798,12.260 5.887,11.987 L3.915,11.380 C3.915,11.380 3.186,10.925 4.431,10.469 C7.465,9.043 11.198,7.587 14.506,6.221 C14.506,6.221 15.598,5.796 15.507,6.828 Z"/>
</svg>