<svg 
 xmlns="http://www.w3.org/2000/svg"
 xmlns:xlink="http://www.w3.org/1999/xlink"
 width="19px" height="13px">
<path fill-rule="evenodd"  fill="rgb(33, 33, 33)"
 d="M2.036,-0.000 C0.920,-0.000 -0.000,0.911 -0.000,2.017 L-0.000,10.983 C-0.000,12.088 0.920,13.000 2.036,13.000 L16.964,13.000 C18.080,13.000 19.000,12.088 19.000,10.983 L19.000,2.017 C19.000,0.911 18.080,-0.000 16.964,-0.000 L2.036,-0.000 ZM2.184,1.345 L16.823,1.345 L9.917,7.452 C9.654,7.685 9.361,7.685 9.097,7.452 L2.184,1.345 ZM1.357,2.416 L6.008,6.528 L1.357,10.954 L1.357,2.416 ZM17.643,2.416 L17.643,10.948 L13.006,6.521 L17.643,2.416 ZM11.988,7.425 L16.420,11.655 L2.580,11.655 L7.026,7.431 L8.192,8.461 C8.934,9.116 10.080,9.117 10.822,8.461 L11.988,7.425 Z"/>
</svg>