<svg 
 xmlns="http://www.w3.org/2000/svg"
 xmlns:xlink="http://www.w3.org/1999/xlink"
 width="17px" height="12px">
<path fill-rule="evenodd"  fill="rgb(255, 255, 255)"
 d="M1.821,-0.000 C0.823,-0.000 -0.000,0.841 -0.000,1.862 L-0.000,10.138 C-0.000,11.159 0.823,12.000 1.821,12.000 L15.178,12.000 C16.177,12.000 17.000,11.159 17.000,10.138 L17.000,1.862 C17.000,0.841 16.177,-0.000 15.178,-0.000 L1.821,-0.000 ZM1.954,1.241 L15.052,1.241 L8.873,6.879 C8.638,7.094 8.376,7.094 8.139,6.879 L1.954,1.241 ZM1.214,2.230 L5.376,6.026 L1.214,10.112 L1.214,2.230 ZM15.786,2.230 L15.786,10.105 L11.637,6.019 L15.786,2.230 ZM10.726,6.853 L14.692,10.758 L2.308,10.758 L6.286,6.860 L7.330,7.810 C7.993,8.415 9.019,8.416 9.683,7.810 L10.726,6.853 Z"/>
</svg>