<svg xmlns="http://www.w3.org/2000/svg" width="36" height="38" viewBox="0 0 36 38">
  <metadata><?xpacket begin="﻿" id="W5M0MpCehiHzreSzNTczkc9d"?>
<x:xmpmeta xmlns:x="adobe:ns:meta/" x:xmptk="Adobe XMP Core 5.6-c142 79.160924, 2017/07/13-01:06:39        ">
   <rdf:RDF xmlns:rdf="http://www.w3.org/1999/02/22-rdf-syntax-ns#">
      <rdf:Description rdf:about=""/>
   </rdf:RDF>
</x:xmpmeta>
                                                                                                    
                                                                                                    
                                                                                                    
                                                                                                    
                                                                                                    
                                                                                                    
                                                                                                    
                                                                                                    
                                                                                                    
                                                                                                    
                                                                                                    
                                                                                                    
                                                                                                    
                                                                                                    
                                                                                                    
                                                                                                    
                                                                                                    
                                                                                                    
                                                                                                    
                                                                                                    
                           
<?xpacket end="w"?></metadata>
<defs>
    <style>
      .cls-1 {
        fill: #a1cfe4;
        fill-rule: evenodd;
      }
    </style>
  </defs>
  <path class="cls-1" d="M1374,603a1.323,1.323,0,0,1-.61-0.151,31.525,31.525,0,0,1-17.38-27.54,27.18,27.18,0,0,1,.47-5.17,1.291,1.291,0,0,1,1.51-1.006l0.08,0.017a15.889,15.889,0,0,0,3.99.488,16.122,16.122,0,0,0,11.05-4.292,1.294,1.294,0,0,1,1.78,0,16.415,16.415,0,0,0,15.04,3.8,1.291,1.291,0,0,1,1.57.91c0.01,0.026.01,0.052,0.02,0.078a27.2,27.2,0,0,1,.47,5.171,31.525,31.525,0,0,1-17.38,27.54A1.323,1.323,0,0,1,1374,603Zm-15.2-31.1a24.351,24.351,0,0,0-.22,3.413A28.926,28.926,0,0,0,1374,600.284a28.926,28.926,0,0,0,15.42-24.978,24.351,24.351,0,0,0-.22-3.413,19.127,19.127,0,0,1-3.27.275A18.857,18.857,0,0,1,1374,567.96a18.864,18.864,0,0,1-11.94,4.208A19.1,19.1,0,0,1,1358.8,571.893Zm14.25,17.358,7.71-8.869a1.253,1.253,0,0,0-.2-1.781,1.292,1.292,0,0,0-1.75.134l-6.67,7.669-2.9-3.8a1.3,1.3,0,0,0-1.8-.253,1.257,1.257,0,0,0-.25,1.774l3.85,5.068a1.3,1.3,0,0,0,.99.5,0.268,0.268,0,0,0,.04,0A1.3,1.3,0,0,0,1373.05,589.251Z" transform="translate(-1356 -565)"/>
</svg>
