<svg xmlns="http://www.w3.org/2000/svg" width="14" height="15" viewBox="0 0 14 15">
  <metadata><?xpacket begin="﻿" id="W5M0MpCehiHzreSzNTczkc9d"?>
<x:xmpmeta xmlns:x="adobe:ns:meta/" x:xmptk="Adobe XMP Core 5.6-c142 79.160924, 2017/07/13-01:06:39        ">
   <rdf:RDF xmlns:rdf="http://www.w3.org/1999/02/22-rdf-syntax-ns#">
      <rdf:Description rdf:about=""/>
   </rdf:RDF>
</x:xmpmeta>
                                                                                                    
                                                                                                    
                                                                                                    
                                                                                                    
                                                                                                    
                                                                                                    
                                                                                                    
                                                                                                    
                                                                                                    
                                                                                                    
                                                                                                    
                                                                                                    
                                                                                                    
                                                                                                    
                                                                                                    
                                                                                                    
                                                                                                    
                                                                                                    
                                                                                                    
                                                                                                    
                           
<?xpacket end="w"?></metadata>
<defs>
    <style>
      .cls-1 {
        fill: #fff;
        fill-rule: evenodd;
      }
    </style>
  </defs>
  <path class="cls-1" d="M1565,13a5.417,5.417,0,0,1,3.71,1.441h0a4.674,4.674,0,0,1,0,6.935c-0.17.154-.37,0.309-0.55,0.446a5.3,5.3,0,0,1,2.31,1.253h0A4.682,4.682,0,0,1,1572,26.49v0.927a0.6,0.6,0,0,1-.63.584h-12.75a0.6,0.6,0,0,1-.62-0.584v-0.91a4.684,4.684,0,0,1,1.52-3.416,5.4,5.4,0,0,1,2.32-1.253,4.282,4.282,0,0,1-.55-0.446h0a4.652,4.652,0,0,1,0-6.934A5.3,5.3,0,0,1,1565,13h0Zm2.85,2.248a4.247,4.247,0,0,0-5.7,0,3.624,3.624,0,0,0-1.18,2.66,3.692,3.692,0,0,0,1.18,2.661h0a4.188,4.188,0,0,0,2.85,1.1,4.265,4.265,0,0,0,2.85-1.1,3.615,3.615,0,0,0,1.17-2.661,3.691,3.691,0,0,0-1.17-2.66h0Zm-1.03,7.57h-3.64a4.061,4.061,0,0,0-2.79,1.081,3.558,3.558,0,0,0-1.16,2.61V26.85h11.52V26.507a3.558,3.558,0,0,0-1.16-2.61h0A4.011,4.011,0,0,0,1566.82,22.817Z" transform="translate(-1558 -13)"/>
</svg>
