<svg xmlns="http://www.w3.org/2000/svg" width="42.971" height="37.031" viewBox="0 0 42.971 37.031">
  <metadata><?xpacket begin="﻿" id="W5M0MpCehiHzreSzNTczkc9d"?>
<x:xmpmeta xmlns:x="adobe:ns:meta/" x:xmptk="Adobe XMP Core 5.6-c142 79.160924, 2017/07/13-01:06:39        ">
   <rdf:RDF xmlns:rdf="http://www.w3.org/1999/02/22-rdf-syntax-ns#">
      <rdf:Description rdf:about=""/>
   </rdf:RDF>
</x:xmpmeta>
                                                                                                    
                                                                                                    
                                                                                                    
                                                                                                    
                                                                                                    
                                                                                                    
                                                                                                    
                                                                                                    
                                                                                                    
                                                                                                    
                                                                                                    
                                                                                                    
                                                                                                    
                                                                                                    
                                                                                                    
                                                                                                    
                                                                                                    
                                                                                                    
                                                                                                    
                                                                                                    
                           
<?xpacket end="w"?></metadata>
<defs>
    <style>
      .cls-1 {
        fill: #a1cfe4;
        fill-rule: evenodd;
      }
    </style>
  </defs>
  <path class="cls-1" d="M1030.62,582.643v-3.182c0-8.557-7.24-15.494-16.18-15.494s-16.174,6.937-16.174,15.494v3.181a8.945,8.945,0,0,0-4.317,12.213,9.366,9.366,0,0,0,4.906,4.392,3.678,3.678,0,0,0,1.355.257,3.785,3.785,0,0,0,2.03-.6,3.629,3.629,0,0,0,1.71-3.057v-10.1a3.63,3.63,0,0,0-1.71-3.056,3.734,3.734,0,0,0-1.07-.447v-2.79a13,13,0,0,1,13.27-12.717c7.34,0,13.28,5.694,13.28,12.717v2.788a3.922,3.922,0,0,0-1.08.449,3.677,3.677,0,0,0-1.71,3.056v10.1a2.568,2.568,0,0,0,.07.476,1.024,1.024,0,0,0-.07.294,1.641,1.641,0,0,1-1.67,1.606h-8.82a1.389,1.389,0,1,0,0,2.776h8.82a4.639,4.639,0,0,0,3.78-1.917,3.755,3.755,0,0,0,1.64.418,3.7,3.7,0,0,0,1.35-.256,8.983,8.983,0,0,0,5.17-11.906,9.29,9.29,0,0,0-4.58-4.7h0Zm-29.57,13.208a0.9,0.9,0,0,1-.42.75,0.73,0.73,0,0,1-.671.08,6.271,6.271,0,0,1-3.588-8.318,6.507,6.507,0,0,1,3.588-3.437,0.75,0.75,0,0,1,.251-0.049,0.8,0.8,0,0,1,.42.13,0.9,0.9,0,0,1,.42.75v10.094Zm27.88,0.83a0.736,0.736,0,0,1-.67-0.081,0.93,0.93,0,0,1-.43-0.75v-10.1a0.933,0.933,0,0,1,.43-0.75,0.763,0.763,0,0,1,.41-0.13,0.729,0.729,0,0,1,.26.05,6.278,6.278,0,0,1,3.59,8.318,6.543,6.543,0,0,1-3.59,3.437v0Z" transform="translate(-992.969 -563.969)"/>
</svg>
