<svg xmlns="http://www.w3.org/2000/svg" width="42.125" height="33.344" viewBox="0 0 42.125 33.344">
  <metadata><?xpacket begin="﻿" id="W5M0MpCehiHzreSzNTczkc9d"?>
<x:xmpmeta xmlns:x="adobe:ns:meta/" x:xmptk="Adobe XMP Core 5.6-c142 79.160924, 2017/07/13-01:06:39        ">
   <rdf:RDF xmlns:rdf="http://www.w3.org/1999/02/22-rdf-syntax-ns#">
      <rdf:Description rdf:about=""/>
   </rdf:RDF>
</x:xmpmeta>
                                                                                                    
                                                                                                    
                                                                                                    
                                                                                                    
                                                                                                    
                                                                                                    
                                                                                                    
                                                                                                    
                                                                                                    
                                                                                                    
                                                                                                    
                                                                                                    
                                                                                                    
                                                                                                    
                                                                                                    
                                                                                                    
                                                                                                    
                                                                                                    
                                                                                                    
                                                                                                    
                           
<?xpacket end="w"?></metadata>
<defs>
    <style>
      .cls-1 {
        fill: #fff;
        fill-rule: evenodd;
      }
    </style>
  </defs>
  <path class="cls-1" d="M655.03,589.33a1.4,1.4,0,0,1-.419,1L644.237,600.52a1.406,1.406,0,0,1-2.393-1v-3.7h-7.9a1.4,1.4,0,1,1,0-2.8h9.3a1.4,1.4,0,0,1,1.4,1.4v1.749l6.968-6.845-6.968-6.846v1.749a1.4,1.4,0,0,1-1.406,1.4h-17.2v3.7a1.406,1.406,0,0,1-2.392,1l-10.376-10.193a1.439,1.439,0,0,1,0-1.994l10.376-10.193a1.406,1.406,0,0,1,2.392,1v3.7h7.9a1.4,1.4,0,1,1,0,2.8h-9.3a1.4,1.4,0,0,1-1.405-1.4v-1.749l-6.968,6.845,6.968,6.847v-1.75a1.4,1.4,0,0,1,1.405-1.4h17.2v-3.7a1.406,1.406,0,0,1,2.392-1l10.375,10.192A1.4,1.4,0,0,1,655.03,589.33Z" transform="translate(-612.906 -567.562)"/>
</svg>
